<mxfile host="app.diagrams.net" modified="2022-01-16T07:55:50.950Z" agent="5.0 (Windows NT 10.0; Win64; x64) AppleWebKit/537.36 (KHTML, like Gecko) Chrome/97.0.4692.71 Safari/537.36 Edg/97.0.1072.62" etag="ZtDZwm-lBzcy2qNtzc48" version="16.2.4" type="github">
  <diagram id="qnXq25P5jwHaFCjbDvNn" name="Page-1">
    <mxGraphModel dx="1038" dy="547" grid="1" gridSize="10" guides="1" tooltips="1" connect="1" arrows="1" fold="1" page="1" pageScale="1" pageWidth="1000" pageHeight="1000" math="0" shadow="0">
      <root>
        <mxCell id="0" />
        <mxCell id="1" parent="0" />
        <mxCell id="r_rarAplNoTzZu2s7cSu-8" value="" style="edgeStyle=orthogonalEdgeStyle;rounded=0;orthogonalLoop=1;jettySize=auto;html=1;strokeWidth=2;fontSize=15;" parent="1" source="r_rarAplNoTzZu2s7cSu-2" target="r_rarAplNoTzZu2s7cSu-1" edge="1">
          <mxGeometry relative="1" as="geometry" />
        </mxCell>
        <mxCell id="r_rarAplNoTzZu2s7cSu-1" value="&lt;p style=&quot;line-height: 1.5&quot;&gt;启动类加载器&lt;br style=&quot;font-size: 15px&quot;&gt;（Bootstrap ClassLoader）&lt;/p&gt;" style="rounded=1;whiteSpace=wrap;html=1;fontSize=15;" parent="1" vertex="1">
          <mxGeometry x="200" y="120" width="200" height="80" as="geometry" />
        </mxCell>
        <mxCell id="r_rarAplNoTzZu2s7cSu-9" value="" style="edgeStyle=orthogonalEdgeStyle;rounded=0;orthogonalLoop=1;jettySize=auto;html=1;strokeWidth=2;fontSize=15;exitX=0.5;exitY=0;exitDx=0;exitDy=0;" parent="1" source="r_rarAplNoTzZu2s7cSu-3" target="r_rarAplNoTzZu2s7cSu-2" edge="1">
          <mxGeometry relative="1" as="geometry" />
        </mxCell>
        <mxCell id="r_rarAplNoTzZu2s7cSu-2" value="&lt;p style=&quot;line-height: 1.5&quot;&gt;扩展类加载器&lt;br style=&quot;font-size: 15px&quot;&gt;（Extension ClassLoader）&lt;/p&gt;" style="rounded=1;whiteSpace=wrap;html=1;fontSize=15;" parent="1" vertex="1">
          <mxGeometry x="200" y="240" width="200" height="80" as="geometry" />
        </mxCell>
        <mxCell id="r_rarAplNoTzZu2s7cSu-10" style="rounded=0;orthogonalLoop=1;jettySize=auto;html=1;entryX=0.5;entryY=1;entryDx=0;entryDy=0;exitX=0.5;exitY=0;exitDx=0;exitDy=0;strokeWidth=2;fontSize=15;" parent="1" source="r_rarAplNoTzZu2s7cSu-4" target="r_rarAplNoTzZu2s7cSu-3" edge="1">
          <mxGeometry relative="1" as="geometry" />
        </mxCell>
        <mxCell id="r_rarAplNoTzZu2s7cSu-11" style="rounded=0;orthogonalLoop=1;jettySize=auto;html=1;entryX=0.5;entryY=1;entryDx=0;entryDy=0;exitX=0.5;exitY=0;exitDx=0;exitDy=0;strokeWidth=2;fontSize=15;" parent="1" source="r_rarAplNoTzZu2s7cSu-7" target="r_rarAplNoTzZu2s7cSu-3" edge="1">
          <mxGeometry relative="1" as="geometry" />
        </mxCell>
        <mxCell id="r_rarAplNoTzZu2s7cSu-3" value="应用程序类加载器&lt;br style=&quot;font-size: 15px;&quot;&gt;（Application ClassLoader）" style="rounded=1;whiteSpace=wrap;html=1;fontSize=15;" parent="1" vertex="1">
          <mxGeometry x="200" y="360" width="200" height="80" as="geometry" />
        </mxCell>
        <mxCell id="r_rarAplNoTzZu2s7cSu-4" value="&lt;p style=&quot;line-height: 1.5&quot;&gt;自定义类加载器&lt;br style=&quot;font-size: 15px&quot;&gt;（User ClassLoader）&lt;/p&gt;" style="rounded=1;whiteSpace=wrap;html=1;fontSize=15;" parent="1" vertex="1">
          <mxGeometry x="40" y="480" width="200" height="80" as="geometry" />
        </mxCell>
        <mxCell id="r_rarAplNoTzZu2s7cSu-7" value="&lt;p style=&quot;line-height: 1.5&quot;&gt;自定义类加载器&lt;br style=&quot;font-size: 15px&quot;&gt;（User ClassLoader）&lt;/p&gt;" style="rounded=1;whiteSpace=wrap;html=1;fontSize=15;" parent="1" vertex="1">
          <mxGeometry x="360" y="480" width="200" height="80" as="geometry" />
        </mxCell>
        <mxCell id="r_rarAplNoTzZu2s7cSu-129" value="" style="group" parent="1" vertex="1" connectable="0">
          <mxGeometry x="40" y="680" width="900" height="960" as="geometry" />
        </mxCell>
        <mxCell id="r_rarAplNoTzZu2s7cSu-79" value="加载 Object.class" style="rounded=1;whiteSpace=wrap;html=1;fontSize=15;" parent="r_rarAplNoTzZu2s7cSu-129" vertex="1">
          <mxGeometry x="20" width="160" height="40" as="geometry" />
        </mxCell>
        <mxCell id="r_rarAplNoTzZu2s7cSu-81" value="&lt;div&gt;自定义类加载器&lt;/div&gt;&lt;div&gt;（XXX ClassLoader）&lt;/div&gt;" style="rounded=1;whiteSpace=wrap;html=1;fontSize=15;" parent="r_rarAplNoTzZu2s7cSu-129" vertex="1">
          <mxGeometry y="80" width="200" height="80" as="geometry" />
        </mxCell>
        <mxCell id="r_rarAplNoTzZu2s7cSu-78" value="" style="edgeStyle=none;rounded=0;orthogonalLoop=1;jettySize=auto;html=1;fontSize=15;strokeWidth=2;" parent="r_rarAplNoTzZu2s7cSu-129" source="r_rarAplNoTzZu2s7cSu-79" target="r_rarAplNoTzZu2s7cSu-81" edge="1">
          <mxGeometry relative="1" as="geometry" />
        </mxCell>
        <mxCell id="r_rarAplNoTzZu2s7cSu-84" value="是否加载过" style="rhombus;whiteSpace=wrap;html=1;fontSize=15;" parent="r_rarAplNoTzZu2s7cSu-129" vertex="1">
          <mxGeometry x="500" y="720" width="160" height="80" as="geometry" />
        </mxCell>
        <mxCell id="r_rarAplNoTzZu2s7cSu-86" value="应用程序类加载器&lt;br&gt;（Application ClassLoader）" style="rounded=1;whiteSpace=wrap;html=1;fontSize=15;" parent="r_rarAplNoTzZu2s7cSu-129" vertex="1">
          <mxGeometry y="320" width="200" height="80" as="geometry" />
        </mxCell>
        <mxCell id="r_rarAplNoTzZu2s7cSu-80" value="" style="edgeStyle=none;rounded=0;orthogonalLoop=1;jettySize=auto;html=1;fontSize=15;strokeWidth=2;" parent="r_rarAplNoTzZu2s7cSu-129" source="r_rarAplNoTzZu2s7cSu-81" target="r_rarAplNoTzZu2s7cSu-86" edge="1">
          <mxGeometry relative="1" as="geometry" />
        </mxCell>
        <mxCell id="r_rarAplNoTzZu2s7cSu-88" value="&lt;p style=&quot;line-height: 1.5&quot;&gt;扩展类加载器&lt;br style=&quot;font-size: 15px&quot;&gt;（Extension ClassLoader）&lt;/p&gt;" style="rounded=1;whiteSpace=wrap;html=1;fontSize=15;" parent="r_rarAplNoTzZu2s7cSu-129" vertex="1">
          <mxGeometry y="560" width="200" height="80" as="geometry" />
        </mxCell>
        <mxCell id="r_rarAplNoTzZu2s7cSu-85" value="" style="edgeStyle=none;rounded=0;orthogonalLoop=1;jettySize=auto;html=1;fontSize=15;strokeWidth=2;" parent="r_rarAplNoTzZu2s7cSu-129" source="r_rarAplNoTzZu2s7cSu-86" target="r_rarAplNoTzZu2s7cSu-88" edge="1">
          <mxGeometry relative="1" as="geometry" />
        </mxCell>
        <mxCell id="r_rarAplNoTzZu2s7cSu-90" value="&lt;p style=&quot;line-height: 1.5&quot;&gt;启动类加载器&lt;br style=&quot;font-size: 15px&quot;&gt;（Bootstrap ClassLoader）&lt;/p&gt;" style="rounded=1;whiteSpace=wrap;html=1;fontSize=15;" parent="r_rarAplNoTzZu2s7cSu-129" vertex="1">
          <mxGeometry y="720" width="200" height="80" as="geometry" />
        </mxCell>
        <mxCell id="r_rarAplNoTzZu2s7cSu-87" value="" style="edgeStyle=orthogonalEdgeStyle;rounded=0;orthogonalLoop=1;jettySize=auto;html=1;fontSize=15;strokeWidth=2;" parent="r_rarAplNoTzZu2s7cSu-129" source="r_rarAplNoTzZu2s7cSu-88" target="r_rarAplNoTzZu2s7cSu-90" edge="1">
          <mxGeometry relative="1" as="geometry">
            <Array as="points">
              <mxPoint x="100" y="760" />
            </Array>
          </mxGeometry>
        </mxCell>
        <mxCell id="r_rarAplNoTzZu2s7cSu-91" value="委派给父类加载" style="text;html=1;align=center;verticalAlign=middle;resizable=0;points=[];autosize=1;strokeColor=none;fillColor=none;fontSize=15;" parent="r_rarAplNoTzZu2s7cSu-129" vertex="1">
          <mxGeometry x="100" y="220" width="120" height="20" as="geometry" />
        </mxCell>
        <mxCell id="r_rarAplNoTzZu2s7cSu-92" value="委派给父类加载" style="text;html=1;align=center;verticalAlign=middle;resizable=0;points=[];autosize=1;strokeColor=none;fillColor=none;fontSize=15;" parent="r_rarAplNoTzZu2s7cSu-129" vertex="1">
          <mxGeometry x="100" y="460" width="120" height="20" as="geometry" />
        </mxCell>
        <mxCell id="r_rarAplNoTzZu2s7cSu-93" value="委派给父类加载" style="text;html=1;align=center;verticalAlign=middle;resizable=0;points=[];autosize=1;strokeColor=none;fillColor=none;fontSize=15;" parent="r_rarAplNoTzZu2s7cSu-129" vertex="1">
          <mxGeometry x="100" y="670" width="120" height="20" as="geometry" />
        </mxCell>
        <mxCell id="r_rarAplNoTzZu2s7cSu-94" value="&lt;p style=&quot;line-height: 1.5&quot;&gt;结束&lt;br style=&quot;font-size: 15px&quot;&gt;（不需要重新加载）&lt;/p&gt;" style="rounded=1;whiteSpace=wrap;html=1;fontSize=15;" parent="r_rarAplNoTzZu2s7cSu-129" vertex="1">
          <mxGeometry x="720" y="720" width="150" height="80" as="geometry" />
        </mxCell>
        <mxCell id="r_rarAplNoTzZu2s7cSu-82" value="" style="edgeStyle=none;rounded=0;orthogonalLoop=1;jettySize=auto;html=1;fontSize=15;strokeWidth=2;" parent="r_rarAplNoTzZu2s7cSu-129" source="r_rarAplNoTzZu2s7cSu-84" target="r_rarAplNoTzZu2s7cSu-94" edge="1">
          <mxGeometry relative="1" as="geometry" />
        </mxCell>
        <mxCell id="r_rarAplNoTzZu2s7cSu-95" value="是" style="text;html=1;align=center;verticalAlign=middle;resizable=0;points=[];autosize=1;strokeColor=none;fillColor=none;fontSize=15;" parent="r_rarAplNoTzZu2s7cSu-129" vertex="1">
          <mxGeometry x="670" y="730" width="30" height="20" as="geometry" />
        </mxCell>
        <mxCell id="r_rarAplNoTzZu2s7cSu-96" value="&lt;p style=&quot;line-height: 1.5&quot;&gt;加载器&lt;br style=&quot;font-size: 15px&quot;&gt;加载 Object.class&lt;/p&gt;" style="rounded=1;whiteSpace=wrap;html=1;fontSize=15;" parent="r_rarAplNoTzZu2s7cSu-129" vertex="1">
          <mxGeometry x="480" y="880" width="200" height="80" as="geometry" />
        </mxCell>
        <mxCell id="r_rarAplNoTzZu2s7cSu-83" value="" style="edgeStyle=none;rounded=0;orthogonalLoop=1;jettySize=auto;html=1;fontSize=15;strokeWidth=2;" parent="r_rarAplNoTzZu2s7cSu-129" source="r_rarAplNoTzZu2s7cSu-84" target="r_rarAplNoTzZu2s7cSu-96" edge="1">
          <mxGeometry relative="1" as="geometry" />
        </mxCell>
        <mxCell id="r_rarAplNoTzZu2s7cSu-97" value="否" style="text;html=1;align=center;verticalAlign=middle;resizable=0;points=[];autosize=1;strokeColor=none;fillColor=none;fontSize=15;" parent="r_rarAplNoTzZu2s7cSu-129" vertex="1">
          <mxGeometry x="590" y="820" width="30" height="20" as="geometry" />
        </mxCell>
        <mxCell id="r_rarAplNoTzZu2s7cSu-98" value="" style="edgeStyle=none;rounded=0;orthogonalLoop=1;jettySize=auto;html=1;fontSize=15;strokeWidth=2;" parent="r_rarAplNoTzZu2s7cSu-129" source="r_rarAplNoTzZu2s7cSu-100" target="r_rarAplNoTzZu2s7cSu-84" edge="1">
          <mxGeometry relative="1" as="geometry" />
        </mxCell>
        <mxCell id="r_rarAplNoTzZu2s7cSu-100" value="是否可以加载" style="rhombus;whiteSpace=wrap;html=1;fontSize=15;" parent="r_rarAplNoTzZu2s7cSu-129" vertex="1">
          <mxGeometry x="260" y="720" width="160" height="80" as="geometry" />
        </mxCell>
        <mxCell id="r_rarAplNoTzZu2s7cSu-89" value="" style="edgeStyle=none;rounded=0;orthogonalLoop=1;jettySize=auto;html=1;fontSize=15;strokeWidth=2;" parent="r_rarAplNoTzZu2s7cSu-129" source="r_rarAplNoTzZu2s7cSu-90" target="r_rarAplNoTzZu2s7cSu-100" edge="1">
          <mxGeometry relative="1" as="geometry" />
        </mxCell>
        <mxCell id="r_rarAplNoTzZu2s7cSu-102" value="否，委派给子类加载" style="text;html=1;align=center;verticalAlign=middle;resizable=0;points=[];autosize=1;strokeColor=none;fillColor=none;fontSize=15;" parent="r_rarAplNoTzZu2s7cSu-129" vertex="1">
          <mxGeometry x="340" y="680" width="150" height="20" as="geometry" />
        </mxCell>
        <mxCell id="r_rarAplNoTzZu2s7cSu-104" value="&lt;p style=&quot;line-height: 1.5&quot;&gt;扩展类加载器&lt;br style=&quot;font-size: 15px&quot;&gt;（Extension ClassLoader）&lt;/p&gt;" style="rounded=1;whiteSpace=wrap;html=1;fontSize=15;" parent="r_rarAplNoTzZu2s7cSu-129" vertex="1">
          <mxGeometry x="240" y="560" width="200" height="80" as="geometry" />
        </mxCell>
        <mxCell id="r_rarAplNoTzZu2s7cSu-123" value="" style="edgeStyle=orthogonalEdgeStyle;rounded=0;orthogonalLoop=1;jettySize=auto;html=1;fontSize=15;strokeWidth=2;" parent="r_rarAplNoTzZu2s7cSu-129" source="r_rarAplNoTzZu2s7cSu-100" target="r_rarAplNoTzZu2s7cSu-104" edge="1">
          <mxGeometry relative="1" as="geometry" />
        </mxCell>
        <mxCell id="r_rarAplNoTzZu2s7cSu-105" style="edgeStyle=orthogonalEdgeStyle;rounded=0;orthogonalLoop=1;jettySize=auto;html=1;fontSize=15;strokeWidth=2;" parent="r_rarAplNoTzZu2s7cSu-129" source="r_rarAplNoTzZu2s7cSu-106" target="r_rarAplNoTzZu2s7cSu-84" edge="1">
          <mxGeometry relative="1" as="geometry" />
        </mxCell>
        <mxCell id="r_rarAplNoTzZu2s7cSu-106" value="是否可以加载" style="rhombus;whiteSpace=wrap;html=1;fontSize=15;" parent="r_rarAplNoTzZu2s7cSu-129" vertex="1">
          <mxGeometry x="260" y="440" width="160" height="80" as="geometry" />
        </mxCell>
        <mxCell id="r_rarAplNoTzZu2s7cSu-103" value="" style="edgeStyle=orthogonalEdgeStyle;rounded=0;orthogonalLoop=1;jettySize=auto;html=1;fontSize=15;strokeWidth=2;" parent="r_rarAplNoTzZu2s7cSu-129" source="r_rarAplNoTzZu2s7cSu-104" target="r_rarAplNoTzZu2s7cSu-106" edge="1">
          <mxGeometry relative="1" as="geometry" />
        </mxCell>
        <mxCell id="r_rarAplNoTzZu2s7cSu-108" value="应用程序类加载器&lt;br&gt;（Application ClassLoader）" style="rounded=1;whiteSpace=wrap;html=1;fontSize=15;" parent="r_rarAplNoTzZu2s7cSu-129" vertex="1">
          <mxGeometry x="240" y="320" width="200" height="80" as="geometry" />
        </mxCell>
        <mxCell id="r_rarAplNoTzZu2s7cSu-122" value="" style="edgeStyle=orthogonalEdgeStyle;rounded=0;orthogonalLoop=1;jettySize=auto;html=1;fontSize=15;strokeWidth=2;" parent="r_rarAplNoTzZu2s7cSu-129" source="r_rarAplNoTzZu2s7cSu-106" target="r_rarAplNoTzZu2s7cSu-108" edge="1">
          <mxGeometry relative="1" as="geometry" />
        </mxCell>
        <mxCell id="r_rarAplNoTzZu2s7cSu-110" value="&lt;div&gt;自定义类加载器&lt;/div&gt;&lt;div&gt;（XXX ClassLoader）&lt;/div&gt;" style="rounded=1;whiteSpace=wrap;html=1;fontSize=15;" parent="r_rarAplNoTzZu2s7cSu-129" vertex="1">
          <mxGeometry x="240" y="80" width="200" height="80" as="geometry" />
        </mxCell>
        <mxCell id="r_rarAplNoTzZu2s7cSu-111" style="edgeStyle=orthogonalEdgeStyle;rounded=0;orthogonalLoop=1;jettySize=auto;html=1;fontSize=15;strokeWidth=2;" parent="r_rarAplNoTzZu2s7cSu-129" source="r_rarAplNoTzZu2s7cSu-112" target="r_rarAplNoTzZu2s7cSu-84" edge="1">
          <mxGeometry relative="1" as="geometry" />
        </mxCell>
        <mxCell id="r_rarAplNoTzZu2s7cSu-112" value="是否可以加载" style="rhombus;whiteSpace=wrap;html=1;fontSize=15;" parent="r_rarAplNoTzZu2s7cSu-129" vertex="1">
          <mxGeometry x="260" y="200" width="160" height="80" as="geometry" />
        </mxCell>
        <mxCell id="r_rarAplNoTzZu2s7cSu-107" value="" style="edgeStyle=orthogonalEdgeStyle;rounded=0;orthogonalLoop=1;jettySize=auto;html=1;fontSize=15;strokeWidth=2;" parent="r_rarAplNoTzZu2s7cSu-129" source="r_rarAplNoTzZu2s7cSu-108" target="r_rarAplNoTzZu2s7cSu-112" edge="1">
          <mxGeometry relative="1" as="geometry" />
        </mxCell>
        <mxCell id="r_rarAplNoTzZu2s7cSu-113" style="edgeStyle=orthogonalEdgeStyle;rounded=0;orthogonalLoop=1;jettySize=auto;html=1;fontSize=15;strokeWidth=2;" parent="r_rarAplNoTzZu2s7cSu-129" source="r_rarAplNoTzZu2s7cSu-114" target="r_rarAplNoTzZu2s7cSu-84" edge="1">
          <mxGeometry relative="1" as="geometry" />
        </mxCell>
        <mxCell id="r_rarAplNoTzZu2s7cSu-114" value="是否可以加载" style="rhombus;whiteSpace=wrap;html=1;fontSize=15;" parent="r_rarAplNoTzZu2s7cSu-129" vertex="1">
          <mxGeometry x="500" y="80" width="160" height="80" as="geometry" />
        </mxCell>
        <mxCell id="r_rarAplNoTzZu2s7cSu-109" value="" style="edgeStyle=orthogonalEdgeStyle;rounded=0;orthogonalLoop=1;jettySize=auto;html=1;fontSize=15;strokeWidth=2;" parent="r_rarAplNoTzZu2s7cSu-129" source="r_rarAplNoTzZu2s7cSu-110" target="r_rarAplNoTzZu2s7cSu-114" edge="1">
          <mxGeometry relative="1" as="geometry" />
        </mxCell>
        <mxCell id="r_rarAplNoTzZu2s7cSu-116" value="否，委派给子类加载" style="text;html=1;align=center;verticalAlign=middle;resizable=0;points=[];autosize=1;strokeColor=none;fillColor=none;fontSize=15;" parent="r_rarAplNoTzZu2s7cSu-129" vertex="1">
          <mxGeometry x="340" y="420" width="150" height="20" as="geometry" />
        </mxCell>
        <mxCell id="r_rarAplNoTzZu2s7cSu-117" style="edgeStyle=orthogonalEdgeStyle;rounded=0;orthogonalLoop=1;jettySize=auto;html=1;fontSize=15;strokeWidth=2;" parent="r_rarAplNoTzZu2s7cSu-129" source="r_rarAplNoTzZu2s7cSu-112" target="r_rarAplNoTzZu2s7cSu-110" edge="1">
          <mxGeometry relative="1" as="geometry">
            <mxPoint x="580" y="200" as="sourcePoint" />
            <mxPoint x="340" y="120" as="targetPoint" />
            <Array as="points">
              <mxPoint x="340" y="190" />
              <mxPoint x="340" y="190" />
            </Array>
          </mxGeometry>
        </mxCell>
        <mxCell id="r_rarAplNoTzZu2s7cSu-118" value="否，委派给子类加载" style="text;html=1;align=center;verticalAlign=middle;resizable=0;points=[];autosize=1;strokeColor=none;fillColor=none;fontSize=15;" parent="r_rarAplNoTzZu2s7cSu-129" vertex="1">
          <mxGeometry x="340" y="180" width="150" height="20" as="geometry" />
        </mxCell>
        <mxCell id="r_rarAplNoTzZu2s7cSu-124" value="是" style="text;html=1;align=center;verticalAlign=middle;resizable=0;points=[];autosize=1;strokeColor=none;fillColor=none;fontSize=15;" parent="r_rarAplNoTzZu2s7cSu-129" vertex="1">
          <mxGeometry x="590" y="470" width="30" height="20" as="geometry" />
        </mxCell>
        <mxCell id="r_rarAplNoTzZu2s7cSu-125" value="是" style="text;html=1;align=center;verticalAlign=middle;resizable=0;points=[];autosize=1;strokeColor=none;fillColor=none;fontSize=15;" parent="r_rarAplNoTzZu2s7cSu-129" vertex="1">
          <mxGeometry x="440" y="730" width="30" height="20" as="geometry" />
        </mxCell>
        <mxCell id="r_rarAplNoTzZu2s7cSu-128" value="否" style="text;html=1;align=center;verticalAlign=middle;resizable=0;points=[];autosize=1;strokeColor=none;fillColor=none;fontSize=15;" parent="r_rarAplNoTzZu2s7cSu-129" vertex="1">
          <mxGeometry x="670" y="90" width="30" height="20" as="geometry" />
        </mxCell>
        <mxCell id="r_rarAplNoTzZu2s7cSu-126" value="&lt;p style=&quot;line-height: 1.5&quot;&gt;抛出异常&lt;br style=&quot;font-size: 15px&quot;&gt;（ClassNotFoundException）&lt;/p&gt;" style="rounded=1;whiteSpace=wrap;html=1;fontSize=15;" parent="r_rarAplNoTzZu2s7cSu-129" vertex="1">
          <mxGeometry x="720" y="80" width="200" height="80" as="geometry" />
        </mxCell>
        <mxCell id="r_rarAplNoTzZu2s7cSu-127" value="" style="edgeStyle=orthogonalEdgeStyle;rounded=0;orthogonalLoop=1;jettySize=auto;html=1;fontSize=15;strokeWidth=2;" parent="r_rarAplNoTzZu2s7cSu-129" source="r_rarAplNoTzZu2s7cSu-114" target="r_rarAplNoTzZu2s7cSu-126" edge="1">
          <mxGeometry relative="1" as="geometry" />
        </mxCell>
        <mxCell id="r_rarAplNoTzZu2s7cSu-131" value="加载 Object.class" style="rounded=1;whiteSpace=wrap;html=1;fontSize=15;" parent="1" vertex="1">
          <mxGeometry x="280" y="1680" width="200" height="80" as="geometry" />
        </mxCell>
        <mxCell id="r_rarAplNoTzZu2s7cSu-132" value="&lt;div&gt;自定义类加载器&lt;/div&gt;&lt;div&gt;（XXX ClassLoader）&lt;/div&gt;" style="rounded=1;whiteSpace=wrap;html=1;fontSize=15;" parent="1" vertex="1">
          <mxGeometry x="280" y="1800" width="200" height="80" as="geometry" />
        </mxCell>
        <mxCell id="r_rarAplNoTzZu2s7cSu-133" value="" style="edgeStyle=none;rounded=0;orthogonalLoop=1;jettySize=auto;html=1;fontSize=15;strokeWidth=2;" parent="1" source="r_rarAplNoTzZu2s7cSu-131" target="r_rarAplNoTzZu2s7cSu-132" edge="1">
          <mxGeometry relative="1" as="geometry" />
        </mxCell>
        <mxCell id="r_rarAplNoTzZu2s7cSu-135" value="应用程序类加载器&lt;br&gt;（Application ClassLoader）" style="rounded=1;whiteSpace=wrap;html=1;fontSize=15;" parent="1" vertex="1">
          <mxGeometry x="280" y="2040" width="200" height="80" as="geometry" />
        </mxCell>
        <mxCell id="r_rarAplNoTzZu2s7cSu-137" value="&lt;p style=&quot;line-height: 1.5&quot;&gt;扩展类加载器&lt;br style=&quot;font-size: 15px&quot;&gt;（Extension ClassLoader）&lt;/p&gt;" style="rounded=1;whiteSpace=wrap;html=1;fontSize=15;" parent="1" vertex="1">
          <mxGeometry x="280" y="2280" width="200" height="80" as="geometry" />
        </mxCell>
        <mxCell id="r_rarAplNoTzZu2s7cSu-206" value="" style="edgeStyle=orthogonalEdgeStyle;rounded=0;orthogonalLoop=1;jettySize=auto;html=1;fontSize=15;strokeWidth=2;" parent="1" source="r_rarAplNoTzZu2s7cSu-139" target="r_rarAplNoTzZu2s7cSu-203" edge="1">
          <mxGeometry relative="1" as="geometry" />
        </mxCell>
        <mxCell id="r_rarAplNoTzZu2s7cSu-139" value="&lt;p style=&quot;line-height: 1.5&quot;&gt;启动类加载器&lt;br style=&quot;font-size: 15px&quot;&gt;（Bootstrap ClassLoader）&lt;/p&gt;" style="rounded=1;whiteSpace=wrap;html=1;fontSize=15;" parent="1" vertex="1">
          <mxGeometry x="280" y="2520" width="200" height="80" as="geometry" />
        </mxCell>
        <mxCell id="r_rarAplNoTzZu2s7cSu-141" value="否，委派给父类加载" style="text;html=1;align=center;verticalAlign=middle;resizable=0;points=[];autosize=1;strokeColor=none;fillColor=none;fontSize=15;" parent="1" vertex="1">
          <mxGeometry x="380" y="2000" width="150" height="20" as="geometry" />
        </mxCell>
        <mxCell id="r_rarAplNoTzZu2s7cSu-144" value="&lt;p style=&quot;line-height: 1.5&quot;&gt;结束&lt;br style=&quot;font-size: 15px&quot;&gt;（不需要重新加载）&lt;/p&gt;" style="rounded=1;whiteSpace=wrap;html=1;fontSize=15;" parent="1" vertex="1">
          <mxGeometry x="70" y="2640" width="150" height="80" as="geometry" />
        </mxCell>
        <mxCell id="r_rarAplNoTzZu2s7cSu-147" value="&lt;p style=&quot;line-height: 1.5&quot;&gt;加载器&lt;br style=&quot;font-size: 15px&quot;&gt;加载 Object.class&lt;/p&gt;" style="rounded=1;whiteSpace=wrap;html=1;fontSize=15;" parent="1" vertex="1">
          <mxGeometry x="760" y="2520" width="200" height="80" as="geometry" />
        </mxCell>
        <mxCell id="r_rarAplNoTzZu2s7cSu-188" style="edgeStyle=orthogonalEdgeStyle;rounded=0;orthogonalLoop=1;jettySize=auto;html=1;fontSize=15;strokeWidth=2;" parent="1" source="r_rarAplNoTzZu2s7cSu-151" target="r_rarAplNoTzZu2s7cSu-147" edge="1">
          <mxGeometry relative="1" as="geometry" />
        </mxCell>
        <mxCell id="r_rarAplNoTzZu2s7cSu-151" value="是否可以加载" style="rhombus;whiteSpace=wrap;html=1;fontSize=15;" parent="1" vertex="1">
          <mxGeometry x="540" y="2400" width="160" height="80" as="geometry" />
        </mxCell>
        <mxCell id="r_rarAplNoTzZu2s7cSu-152" value="" style="edgeStyle=orthogonalEdgeStyle;rounded=0;orthogonalLoop=1;jettySize=auto;html=1;fontSize=15;strokeWidth=2;" parent="1" source="r_rarAplNoTzZu2s7cSu-203" target="r_rarAplNoTzZu2s7cSu-151" edge="1">
          <mxGeometry relative="1" as="geometry" />
        </mxCell>
        <mxCell id="r_rarAplNoTzZu2s7cSu-153" value="否，委派给子类加载" style="text;html=1;align=center;verticalAlign=middle;resizable=0;points=[];autosize=1;strokeColor=none;fillColor=none;fontSize=15;" parent="1" vertex="1">
          <mxGeometry x="620" y="2380" width="150" height="20" as="geometry" />
        </mxCell>
        <mxCell id="r_rarAplNoTzZu2s7cSu-154" value="&lt;p style=&quot;line-height: 1.5&quot;&gt;扩展类加载器&lt;br style=&quot;font-size: 15px&quot;&gt;（Extension ClassLoader）&lt;/p&gt;" style="rounded=1;whiteSpace=wrap;html=1;fontSize=15;" parent="1" vertex="1">
          <mxGeometry x="520" y="2280" width="200" height="80" as="geometry" />
        </mxCell>
        <mxCell id="r_rarAplNoTzZu2s7cSu-155" value="" style="edgeStyle=orthogonalEdgeStyle;rounded=0;orthogonalLoop=1;jettySize=auto;html=1;fontSize=15;strokeWidth=2;" parent="1" source="r_rarAplNoTzZu2s7cSu-151" target="r_rarAplNoTzZu2s7cSu-154" edge="1">
          <mxGeometry relative="1" as="geometry" />
        </mxCell>
        <mxCell id="r_rarAplNoTzZu2s7cSu-191" style="edgeStyle=orthogonalEdgeStyle;rounded=0;orthogonalLoop=1;jettySize=auto;html=1;fontSize=15;strokeWidth=2;" parent="1" source="r_rarAplNoTzZu2s7cSu-157" target="r_rarAplNoTzZu2s7cSu-147" edge="1">
          <mxGeometry relative="1" as="geometry" />
        </mxCell>
        <mxCell id="r_rarAplNoTzZu2s7cSu-157" value="是否可以加载" style="rhombus;whiteSpace=wrap;html=1;fontSize=15;" parent="1" vertex="1">
          <mxGeometry x="540" y="2160" width="160" height="80" as="geometry" />
        </mxCell>
        <mxCell id="r_rarAplNoTzZu2s7cSu-158" value="" style="edgeStyle=orthogonalEdgeStyle;rounded=0;orthogonalLoop=1;jettySize=auto;html=1;fontSize=15;strokeWidth=2;" parent="1" source="r_rarAplNoTzZu2s7cSu-154" target="r_rarAplNoTzZu2s7cSu-157" edge="1">
          <mxGeometry relative="1" as="geometry" />
        </mxCell>
        <mxCell id="r_rarAplNoTzZu2s7cSu-159" value="应用程序类加载器&lt;br&gt;（Application ClassLoader）" style="rounded=1;whiteSpace=wrap;html=1;fontSize=15;" parent="1" vertex="1">
          <mxGeometry x="520" y="2040" width="200" height="80" as="geometry" />
        </mxCell>
        <mxCell id="r_rarAplNoTzZu2s7cSu-160" value="" style="edgeStyle=orthogonalEdgeStyle;rounded=0;orthogonalLoop=1;jettySize=auto;html=1;fontSize=15;strokeWidth=2;" parent="1" source="r_rarAplNoTzZu2s7cSu-157" target="r_rarAplNoTzZu2s7cSu-159" edge="1">
          <mxGeometry relative="1" as="geometry" />
        </mxCell>
        <mxCell id="r_rarAplNoTzZu2s7cSu-161" value="&lt;div&gt;自定义类加载器&lt;/div&gt;&lt;div&gt;（XXX ClassLoader）&lt;/div&gt;" style="rounded=1;whiteSpace=wrap;html=1;fontSize=15;" parent="1" vertex="1">
          <mxGeometry x="520" y="1800" width="200" height="80" as="geometry" />
        </mxCell>
        <mxCell id="r_rarAplNoTzZu2s7cSu-189" style="edgeStyle=orthogonalEdgeStyle;rounded=0;orthogonalLoop=1;jettySize=auto;html=1;entryX=0.5;entryY=0;entryDx=0;entryDy=0;fontSize=15;strokeWidth=2;" parent="1" source="r_rarAplNoTzZu2s7cSu-163" target="r_rarAplNoTzZu2s7cSu-147" edge="1">
          <mxGeometry relative="1" as="geometry" />
        </mxCell>
        <mxCell id="r_rarAplNoTzZu2s7cSu-163" value="是否可以加载" style="rhombus;whiteSpace=wrap;html=1;fontSize=15;" parent="1" vertex="1">
          <mxGeometry x="540" y="1920" width="160" height="80" as="geometry" />
        </mxCell>
        <mxCell id="r_rarAplNoTzZu2s7cSu-164" value="" style="edgeStyle=orthogonalEdgeStyle;rounded=0;orthogonalLoop=1;jettySize=auto;html=1;fontSize=15;strokeWidth=2;" parent="1" source="r_rarAplNoTzZu2s7cSu-159" target="r_rarAplNoTzZu2s7cSu-163" edge="1">
          <mxGeometry relative="1" as="geometry" />
        </mxCell>
        <mxCell id="r_rarAplNoTzZu2s7cSu-192" style="edgeStyle=orthogonalEdgeStyle;rounded=0;orthogonalLoop=1;jettySize=auto;html=1;fontSize=15;strokeWidth=2;" parent="1" source="r_rarAplNoTzZu2s7cSu-166" target="r_rarAplNoTzZu2s7cSu-147" edge="1">
          <mxGeometry relative="1" as="geometry" />
        </mxCell>
        <mxCell id="r_rarAplNoTzZu2s7cSu-166" value="是否可以加载" style="rhombus;whiteSpace=wrap;html=1;fontSize=15;" parent="1" vertex="1">
          <mxGeometry x="780" y="1800" width="160" height="80" as="geometry" />
        </mxCell>
        <mxCell id="r_rarAplNoTzZu2s7cSu-167" value="" style="edgeStyle=orthogonalEdgeStyle;rounded=0;orthogonalLoop=1;jettySize=auto;html=1;fontSize=15;strokeWidth=2;" parent="1" source="r_rarAplNoTzZu2s7cSu-161" target="r_rarAplNoTzZu2s7cSu-166" edge="1">
          <mxGeometry relative="1" as="geometry" />
        </mxCell>
        <mxCell id="r_rarAplNoTzZu2s7cSu-168" value="否，委派给子类加载" style="text;html=1;align=center;verticalAlign=middle;resizable=0;points=[];autosize=1;strokeColor=none;fillColor=none;fontSize=15;" parent="1" vertex="1">
          <mxGeometry x="620" y="2140" width="150" height="20" as="geometry" />
        </mxCell>
        <mxCell id="r_rarAplNoTzZu2s7cSu-169" style="edgeStyle=orthogonalEdgeStyle;rounded=0;orthogonalLoop=1;jettySize=auto;html=1;fontSize=15;strokeWidth=2;" parent="1" source="r_rarAplNoTzZu2s7cSu-163" target="r_rarAplNoTzZu2s7cSu-161" edge="1">
          <mxGeometry relative="1" as="geometry">
            <mxPoint x="860" y="1920" as="sourcePoint" />
            <mxPoint x="620" y="1840" as="targetPoint" />
            <Array as="points">
              <mxPoint x="620" y="1910" />
              <mxPoint x="620" y="1910" />
            </Array>
          </mxGeometry>
        </mxCell>
        <mxCell id="r_rarAplNoTzZu2s7cSu-170" value="否，委派给子类加载" style="text;html=1;align=center;verticalAlign=middle;resizable=0;points=[];autosize=1;strokeColor=none;fillColor=none;fontSize=15;" parent="1" vertex="1">
          <mxGeometry x="620" y="1900" width="150" height="20" as="geometry" />
        </mxCell>
        <mxCell id="r_rarAplNoTzZu2s7cSu-172" value="是" style="text;html=1;align=center;verticalAlign=middle;resizable=0;points=[];autosize=1;strokeColor=none;fillColor=none;fontSize=15;" parent="1" vertex="1">
          <mxGeometry x="700" y="2450" width="30" height="20" as="geometry" />
        </mxCell>
        <mxCell id="r_rarAplNoTzZu2s7cSu-173" value="否" style="text;html=1;align=center;verticalAlign=middle;resizable=0;points=[];autosize=1;strokeColor=none;fillColor=none;fontSize=15;" parent="1" vertex="1">
          <mxGeometry x="860" y="1780" width="30" height="20" as="geometry" />
        </mxCell>
        <mxCell id="r_rarAplNoTzZu2s7cSu-174" value="&lt;p style=&quot;line-height: 1.5&quot;&gt;抛出异常&lt;br style=&quot;font-size: 15px&quot;&gt;（ClassNotFoundException）&lt;/p&gt;" style="rounded=1;whiteSpace=wrap;html=1;fontSize=15;" parent="1" vertex="1">
          <mxGeometry x="760" y="1680" width="200" height="80" as="geometry" />
        </mxCell>
        <mxCell id="r_rarAplNoTzZu2s7cSu-175" value="" style="edgeStyle=orthogonalEdgeStyle;rounded=0;orthogonalLoop=1;jettySize=auto;html=1;fontSize=15;strokeWidth=2;" parent="1" source="r_rarAplNoTzZu2s7cSu-166" target="r_rarAplNoTzZu2s7cSu-174" edge="1">
          <mxGeometry relative="1" as="geometry" />
        </mxCell>
        <mxCell id="r_rarAplNoTzZu2s7cSu-177" value="" style="edgeStyle=orthogonalEdgeStyle;rounded=0;orthogonalLoop=1;jettySize=auto;html=1;fontSize=15;strokeWidth=2;" parent="1" source="r_rarAplNoTzZu2s7cSu-176" target="r_rarAplNoTzZu2s7cSu-135" edge="1">
          <mxGeometry relative="1" as="geometry" />
        </mxCell>
        <mxCell id="r_rarAplNoTzZu2s7cSu-193" style="edgeStyle=orthogonalEdgeStyle;rounded=0;orthogonalLoop=1;jettySize=auto;html=1;fontSize=15;strokeWidth=2;" parent="1" source="r_rarAplNoTzZu2s7cSu-176" target="r_rarAplNoTzZu2s7cSu-144" edge="1">
          <mxGeometry relative="1" as="geometry" />
        </mxCell>
        <mxCell id="r_rarAplNoTzZu2s7cSu-176" value="是否加载过" style="rhombus;whiteSpace=wrap;html=1;fontSize=15;" parent="1" vertex="1">
          <mxGeometry x="300" y="1920" width="160" height="80" as="geometry" />
        </mxCell>
        <mxCell id="r_rarAplNoTzZu2s7cSu-181" value="" style="edgeStyle=orthogonalEdgeStyle;rounded=0;orthogonalLoop=1;jettySize=auto;html=1;fontSize=15;strokeWidth=2;" parent="1" source="r_rarAplNoTzZu2s7cSu-132" target="r_rarAplNoTzZu2s7cSu-176" edge="1">
          <mxGeometry relative="1" as="geometry" />
        </mxCell>
        <mxCell id="r_rarAplNoTzZu2s7cSu-182" value="" style="edgeStyle=orthogonalEdgeStyle;rounded=0;orthogonalLoop=1;jettySize=auto;html=1;fontSize=15;strokeWidth=2;" parent="1" source="r_rarAplNoTzZu2s7cSu-178" target="r_rarAplNoTzZu2s7cSu-137" edge="1">
          <mxGeometry relative="1" as="geometry" />
        </mxCell>
        <mxCell id="r_rarAplNoTzZu2s7cSu-194" style="edgeStyle=orthogonalEdgeStyle;rounded=0;orthogonalLoop=1;jettySize=auto;html=1;fontSize=15;strokeWidth=2;" parent="1" source="r_rarAplNoTzZu2s7cSu-178" target="r_rarAplNoTzZu2s7cSu-144" edge="1">
          <mxGeometry relative="1" as="geometry" />
        </mxCell>
        <mxCell id="r_rarAplNoTzZu2s7cSu-178" value="是否加载过" style="rhombus;whiteSpace=wrap;html=1;fontSize=15;" parent="1" vertex="1">
          <mxGeometry x="300" y="2160" width="160" height="80" as="geometry" />
        </mxCell>
        <mxCell id="r_rarAplNoTzZu2s7cSu-179" value="否，委派给父类加载" style="text;html=1;align=center;verticalAlign=middle;resizable=0;points=[];autosize=1;strokeColor=none;fillColor=none;fontSize=15;" parent="1" vertex="1">
          <mxGeometry x="380" y="2240" width="150" height="20" as="geometry" />
        </mxCell>
        <mxCell id="r_rarAplNoTzZu2s7cSu-185" value="" style="edgeStyle=orthogonalEdgeStyle;rounded=0;orthogonalLoop=1;jettySize=auto;html=1;fontSize=15;strokeWidth=2;" parent="1" source="r_rarAplNoTzZu2s7cSu-183" target="r_rarAplNoTzZu2s7cSu-139" edge="1">
          <mxGeometry relative="1" as="geometry" />
        </mxCell>
        <mxCell id="r_rarAplNoTzZu2s7cSu-195" style="edgeStyle=orthogonalEdgeStyle;rounded=0;orthogonalLoop=1;jettySize=auto;html=1;fontSize=15;strokeWidth=2;" parent="1" source="r_rarAplNoTzZu2s7cSu-183" target="r_rarAplNoTzZu2s7cSu-144" edge="1">
          <mxGeometry relative="1" as="geometry" />
        </mxCell>
        <mxCell id="r_rarAplNoTzZu2s7cSu-183" value="是否加载过" style="rhombus;whiteSpace=wrap;html=1;fontSize=15;" parent="1" vertex="1">
          <mxGeometry x="300" y="2400" width="160" height="80" as="geometry" />
        </mxCell>
        <mxCell id="r_rarAplNoTzZu2s7cSu-186" value="否，委派给父类加载" style="text;html=1;align=center;verticalAlign=middle;resizable=0;points=[];autosize=1;strokeColor=none;fillColor=none;fontSize=15;" parent="1" vertex="1">
          <mxGeometry x="380" y="2480" width="150" height="20" as="geometry" />
        </mxCell>
        <mxCell id="r_rarAplNoTzZu2s7cSu-196" value="是" style="text;html=1;align=center;verticalAlign=middle;resizable=0;points=[];autosize=1;strokeColor=none;fillColor=none;fontSize=15;" parent="1" vertex="1">
          <mxGeometry x="260" y="2450" width="30" height="20" as="geometry" />
        </mxCell>
        <mxCell id="r_rarAplNoTzZu2s7cSu-197" value="是" style="text;html=1;align=center;verticalAlign=middle;resizable=0;points=[];autosize=1;strokeColor=none;fillColor=none;fontSize=15;" parent="1" vertex="1">
          <mxGeometry x="700" y="2210" width="30" height="20" as="geometry" />
        </mxCell>
        <mxCell id="r_rarAplNoTzZu2s7cSu-198" value="是" style="text;html=1;align=center;verticalAlign=middle;resizable=0;points=[];autosize=1;strokeColor=none;fillColor=none;fontSize=15;" parent="1" vertex="1">
          <mxGeometry x="700" y="1970" width="30" height="20" as="geometry" />
        </mxCell>
        <mxCell id="r_rarAplNoTzZu2s7cSu-199" value="是" style="text;html=1;align=center;verticalAlign=middle;resizable=0;points=[];autosize=1;strokeColor=none;fillColor=none;fontSize=15;" parent="1" vertex="1">
          <mxGeometry x="260" y="1970" width="30" height="20" as="geometry" />
        </mxCell>
        <mxCell id="r_rarAplNoTzZu2s7cSu-200" value="是" style="text;html=1;align=center;verticalAlign=middle;resizable=0;points=[];autosize=1;strokeColor=none;fillColor=none;fontSize=15;" parent="1" vertex="1">
          <mxGeometry x="260" y="2210" width="30" height="20" as="geometry" />
        </mxCell>
        <mxCell id="r_rarAplNoTzZu2s7cSu-201" value="是" style="text;html=1;align=center;verticalAlign=middle;resizable=0;points=[];autosize=1;strokeColor=none;fillColor=none;fontSize=15;" parent="1" vertex="1">
          <mxGeometry x="860" y="1890" width="30" height="20" as="geometry" />
        </mxCell>
        <mxCell id="r_rarAplNoTzZu2s7cSu-180" value="" style="edgeStyle=orthogonalEdgeStyle;rounded=0;orthogonalLoop=1;jettySize=auto;html=1;fontSize=15;strokeWidth=2;" parent="1" source="r_rarAplNoTzZu2s7cSu-135" target="r_rarAplNoTzZu2s7cSu-178" edge="1">
          <mxGeometry relative="1" as="geometry" />
        </mxCell>
        <mxCell id="r_rarAplNoTzZu2s7cSu-184" value="" style="edgeStyle=orthogonalEdgeStyle;rounded=0;orthogonalLoop=1;jettySize=auto;html=1;fontSize=15;strokeWidth=2;" parent="1" source="r_rarAplNoTzZu2s7cSu-137" target="r_rarAplNoTzZu2s7cSu-183" edge="1">
          <mxGeometry relative="1" as="geometry" />
        </mxCell>
        <mxCell id="r_rarAplNoTzZu2s7cSu-204" value="" style="edgeStyle=orthogonalEdgeStyle;rounded=0;orthogonalLoop=1;jettySize=auto;html=1;fontSize=15;strokeWidth=2;" parent="1" source="r_rarAplNoTzZu2s7cSu-203" target="r_rarAplNoTzZu2s7cSu-144" edge="1">
          <mxGeometry relative="1" as="geometry" />
        </mxCell>
        <mxCell id="r_rarAplNoTzZu2s7cSu-203" value="是否加载过" style="rhombus;whiteSpace=wrap;html=1;fontSize=15;" parent="1" vertex="1">
          <mxGeometry x="300" y="2640" width="160" height="80" as="geometry" />
        </mxCell>
        <mxCell id="r_rarAplNoTzZu2s7cSu-205" value="是" style="text;html=1;align=center;verticalAlign=middle;resizable=0;points=[];autosize=1;strokeColor=none;fillColor=none;fontSize=15;" parent="1" vertex="1">
          <mxGeometry x="260" y="2690" width="30" height="20" as="geometry" />
        </mxCell>
        <mxCell id="r_rarAplNoTzZu2s7cSu-207" value="否" style="text;html=1;align=center;verticalAlign=middle;resizable=0;points=[];autosize=1;strokeColor=none;fillColor=none;fontSize=15;" parent="1" vertex="1">
          <mxGeometry x="470" y="2650" width="30" height="20" as="geometry" />
        </mxCell>
      </root>
    </mxGraphModel>
  </diagram>
</mxfile>
